M48
;Layer_Color=9474304
;FILE_FORMAT=4:4
METRIC,LZ
;TYPE=PLATED
T01F00S00C0.7112
T02F00S00C2.3000
%
T01
X0084Y0076
X0092
X01
X0108
X01115Y00775
X0076Y0076
Y0084
X0072
X0068
X0064
Y0092
X006
X0056
X00502831Y00921559
X0050175Y0100089
X0052Y01
X0056
X006
X0064
X0068
X0072
X0076
Y0108
X0072
X0068
X0064
X0056Y01095
Y01065
X006Y0116
X0068
X0076
Y0092
X0072
X0068
X0056Y0085
X0052Y0084
X008
X0084
X0088
X0092
X0096
X01
X0104
Y0092
X01
X0096
X0092
X0088
X0084
X008
Y01
X0084
X0088
X0092
X0096
X01
X0104
X0108
X0112
X0116
Y0108
X0112
X0108
X0104
X01
X0096
X0092
X0088
X0084
X008
X0084Y0116
X0092
X01
X0108
X0116
Y0092
X0112
X0108
X0112Y0085
X012
Y0092
X0124
X0132
X01355Y00935
Y01
X0128
X0124
X012
Y0108
X0124
X0128
X01275Y00855
T02
X02125Y00405
X01345Y0078
X00525Y0115
X01345
M30
