G04*
G04 #@! TF.GenerationSoftware,Altium Limited,Altium Designer,25.8.1 (18)*
G04*
G04 Layer_Color=65535*
%FSLAX44Y44*%
%MOMM*%
G71*
G04*
G04 #@! TF.SameCoordinates,4CDBAC49-9385-4654-90CB-B963C00DF8DC*
G04*
G04*
G04 #@! TF.FilePolarity,Positive*
G04*
G01*
G75*
%ADD10C,0.2500*%
%ADD11C,0.2000*%
%ADD12C,0.2540*%
D10*
X548750Y807750D02*
G03*
X548750Y807750I-1250J0D01*
G01*
X537750Y1077500D02*
G03*
X537750Y1077500I-1250J0D01*
G01*
X937750Y997500D02*
G03*
X937750Y997500I-1250J0D01*
G01*
X857750D02*
G03*
X857750Y997500I-1250J0D01*
G01*
X617750Y917500D02*
G03*
X617750Y917500I-1250J0D01*
G01*
X777750Y997500D02*
G03*
X777750Y997500I-1250J0D01*
G01*
X697750D02*
G03*
X697750Y997500I-1250J0D01*
G01*
X617750D02*
G03*
X617750Y997500I-1250J0D01*
G01*
X937750Y917500D02*
G03*
X937750Y917500I-1250J0D01*
G01*
X857750D02*
G03*
X857750Y917500I-1250J0D01*
G01*
X777750D02*
G03*
X777750Y917500I-1250J0D01*
G01*
X697750D02*
G03*
X697750Y917500I-1250J0D01*
G01*
X1257750D02*
G03*
X1257750Y917500I-1250J0D01*
G01*
X1177750D02*
G03*
X1177750Y917500I-1250J0D01*
G01*
X1097750D02*
G03*
X1097750Y917500I-1250J0D01*
G01*
X1017750D02*
G03*
X1017750Y917500I-1250J0D01*
G01*
X937750Y837500D02*
G03*
X937750Y837500I-1250J0D01*
G01*
X777750D02*
G03*
X777750Y837500I-1250J0D01*
G01*
X857750D02*
G03*
X857750Y837500I-1250J0D01*
G01*
X1097750D02*
G03*
X1097750Y837500I-1250J0D01*
G01*
X1017750D02*
G03*
X1017750Y837500I-1250J0D01*
G01*
X697750D02*
G03*
X697750Y837500I-1250J0D01*
G01*
X537750Y997500D02*
G03*
X537750Y997500I-1250J0D01*
G01*
Y917500D02*
G03*
X537750Y917500I-1250J0D01*
G01*
X1097750Y997500D02*
G03*
X1097750Y997500I-1250J0D01*
G01*
X1177750D02*
G03*
X1177750Y997500I-1250J0D01*
G01*
X1257750D02*
G03*
X1257750Y997500I-1250J0D01*
G01*
X617750Y1077500D02*
G03*
X617750Y1077500I-1250J0D01*
G01*
X697750D02*
G03*
X697750Y1077500I-1250J0D01*
G01*
X1337750Y997500D02*
G03*
X1337750Y997500I-1250J0D01*
G01*
X697750Y1157500D02*
G03*
X697750Y1157500I-1250J0D01*
G01*
X617750D02*
G03*
X617750Y1157500I-1250J0D01*
G01*
X1337750Y1077500D02*
G03*
X1337750Y1077500I-1250J0D01*
G01*
X1257750Y1157500D02*
G03*
X1257750Y1157500I-1250J0D01*
G01*
X1177750Y1077500D02*
G03*
X1177750Y1077500I-1250J0D01*
G01*
X1257750D02*
G03*
X1257750Y1077500I-1250J0D01*
G01*
X1177750Y1157500D02*
G03*
X1177750Y1157500I-1250J0D01*
G01*
X777750D02*
G03*
X777750Y1157500I-1250J0D01*
G01*
X857750D02*
G03*
X857750Y1157500I-1250J0D01*
G01*
X1017750D02*
G03*
X1017750Y1157500I-1250J0D01*
G01*
X937750D02*
G03*
X937750Y1157500I-1250J0D01*
G01*
X1097750D02*
G03*
X1097750Y1157500I-1250J0D01*
G01*
X857750Y1077500D02*
G03*
X857750Y1077500I-1250J0D01*
G01*
X777750D02*
G03*
X777750Y1077500I-1250J0D01*
G01*
X937750D02*
G03*
X937750Y1077500I-1250J0D01*
G01*
X1017750D02*
G03*
X1017750Y1077500I-1250J0D01*
G01*
X1097750D02*
G03*
X1097750Y1077500I-1250J0D01*
G01*
X1017750Y997500D02*
G03*
X1017750Y997500I-1250J0D01*
G01*
D11*
X516500Y783750D02*
Y787000D01*
Y743000D02*
Y746250D01*
Y743000D02*
X603500D01*
Y783750D02*
Y787000D01*
Y743000D02*
Y746250D01*
X580250Y787000D02*
X603500D01*
X516500D02*
X539750D01*
X545000Y1015000D02*
Y1065000D01*
X495000Y1015000D02*
Y1065000D01*
X495500D01*
X495000Y1015000D02*
X495500D01*
X544500D02*
X545000D01*
X544500Y1065000D02*
X545000D01*
X512000D02*
X528000D01*
X512000Y1015000D02*
X528000D01*
X945000Y935000D02*
Y985000D01*
X895000Y935000D02*
Y985000D01*
X895500D01*
X895000Y935000D02*
X895500D01*
X944500D02*
X945000D01*
X944500Y985000D02*
X945000D01*
X912000D02*
X928000D01*
X912000Y935000D02*
X928000D01*
X865000D02*
Y985000D01*
X815000Y935000D02*
Y985000D01*
X815500D01*
X815000Y935000D02*
X815500D01*
X864500D02*
X865000D01*
X864500Y985000D02*
X865000D01*
X832000D02*
X848000D01*
X832000Y935000D02*
X848000D01*
X625000Y855000D02*
Y905000D01*
X575000Y855000D02*
Y905000D01*
X575500D01*
X575000Y855000D02*
X575500D01*
X624500D02*
X625000D01*
X624500Y905000D02*
X625000D01*
X592000D02*
X608000D01*
X592000Y855000D02*
X608000D01*
X785000Y935000D02*
Y985000D01*
X735000Y935000D02*
Y985000D01*
X735500D01*
X735000Y935000D02*
X735500D01*
X784500D02*
X785000D01*
X784500Y985000D02*
X785000D01*
X752000D02*
X768000D01*
X752000Y935000D02*
X768000D01*
X705000D02*
Y985000D01*
X655000Y935000D02*
Y985000D01*
X655500D01*
X655000Y935000D02*
X655500D01*
X704500D02*
X705000D01*
X704500Y985000D02*
X705000D01*
X672000D02*
X688000D01*
X672000Y935000D02*
X688000D01*
X625000D02*
Y985000D01*
X575000Y935000D02*
Y985000D01*
X575500D01*
X575000Y935000D02*
X575500D01*
X624500D02*
X625000D01*
X624500Y985000D02*
X625000D01*
X592000D02*
X608000D01*
X592000Y935000D02*
X608000D01*
X945000Y855000D02*
Y905000D01*
X895000Y855000D02*
Y905000D01*
X895500D01*
X895000Y855000D02*
X895500D01*
X944500D02*
X945000D01*
X944500Y905000D02*
X945000D01*
X912000D02*
X928000D01*
X912000Y855000D02*
X928000D01*
X865000D02*
Y905000D01*
X815000Y855000D02*
Y905000D01*
X815500D01*
X815000Y855000D02*
X815500D01*
X864500D02*
X865000D01*
X864500Y905000D02*
X865000D01*
X832000D02*
X848000D01*
X832000Y855000D02*
X848000D01*
X785000D02*
Y905000D01*
X735000Y855000D02*
Y905000D01*
X735500D01*
X735000Y855000D02*
X735500D01*
X784500D02*
X785000D01*
X784500Y905000D02*
X785000D01*
X752000D02*
X768000D01*
X752000Y855000D02*
X768000D01*
X705000D02*
Y905000D01*
X655000Y855000D02*
Y905000D01*
X655500D01*
X655000Y855000D02*
X655500D01*
X704500D02*
X705000D01*
X704500Y905000D02*
X705000D01*
X672000D02*
X688000D01*
X672000Y855000D02*
X688000D01*
X1265000D02*
Y905000D01*
X1215000Y855000D02*
Y905000D01*
X1215500D01*
X1215000Y855000D02*
X1215500D01*
X1264500D02*
X1265000D01*
X1264500Y905000D02*
X1265000D01*
X1232000D02*
X1248000D01*
X1232000Y855000D02*
X1248000D01*
X1185000D02*
Y905000D01*
X1135000Y855000D02*
Y905000D01*
X1135500D01*
X1135000Y855000D02*
X1135500D01*
X1184500D02*
X1185000D01*
X1184500Y905000D02*
X1185000D01*
X1152000D02*
X1168000D01*
X1152000Y855000D02*
X1168000D01*
X1105000D02*
Y905000D01*
X1055000Y855000D02*
Y905000D01*
X1055500D01*
X1055000Y855000D02*
X1055500D01*
X1104500D02*
X1105000D01*
X1104500Y905000D02*
X1105000D01*
X1072000D02*
X1088000D01*
X1072000Y855000D02*
X1088000D01*
X1025000D02*
Y905000D01*
X975000Y855000D02*
Y905000D01*
X975500D01*
X975000Y855000D02*
X975500D01*
X1024500D02*
X1025000D01*
X1024500Y905000D02*
X1025000D01*
X992000D02*
X1008000D01*
X992000Y855000D02*
X1008000D01*
X945000Y775000D02*
Y825000D01*
X895000Y775000D02*
Y825000D01*
X895500D01*
X895000Y775000D02*
X895500D01*
X944500D02*
X945000D01*
X944500Y825000D02*
X945000D01*
X912000D02*
X928000D01*
X912000Y775000D02*
X928000D01*
X785000D02*
Y825000D01*
X735000Y775000D02*
Y825000D01*
X735500D01*
X735000Y775000D02*
X735500D01*
X784500D02*
X785000D01*
X784500Y825000D02*
X785000D01*
X752000D02*
X768000D01*
X752000Y775000D02*
X768000D01*
X865000D02*
Y825000D01*
X815000Y775000D02*
Y825000D01*
X815500D01*
X815000Y775000D02*
X815500D01*
X864500D02*
X865000D01*
X864500Y825000D02*
X865000D01*
X832000D02*
X848000D01*
X832000Y775000D02*
X848000D01*
X1105000D02*
Y825000D01*
X1055000Y775000D02*
Y825000D01*
X1055500D01*
X1055000Y775000D02*
X1055500D01*
X1104500D02*
X1105000D01*
X1104500Y825000D02*
X1105000D01*
X1072000D02*
X1088000D01*
X1072000Y775000D02*
X1088000D01*
X1025000D02*
Y825000D01*
X975000Y775000D02*
Y825000D01*
X975500D01*
X975000Y775000D02*
X975500D01*
X1024500D02*
X1025000D01*
X1024500Y825000D02*
X1025000D01*
X992000D02*
X1008000D01*
X992000Y775000D02*
X1008000D01*
X705000D02*
Y825000D01*
X655000Y775000D02*
Y825000D01*
X655500D01*
X655000Y775000D02*
X655500D01*
X704500D02*
X705000D01*
X704500Y825000D02*
X705000D01*
X672000D02*
X688000D01*
X672000Y775000D02*
X688000D01*
X545000Y935000D02*
Y985000D01*
X495000Y935000D02*
Y985000D01*
X495500D01*
X495000Y935000D02*
X495500D01*
X544500D02*
X545000D01*
X544500Y985000D02*
X545000D01*
X512000D02*
X528000D01*
X512000Y935000D02*
X528000D01*
X545000Y855000D02*
Y905000D01*
X495000Y855000D02*
Y905000D01*
X495500D01*
X495000Y855000D02*
X495500D01*
X544500D02*
X545000D01*
X544500Y905000D02*
X545000D01*
X512000D02*
X528000D01*
X512000Y855000D02*
X528000D01*
X1105000Y935000D02*
Y985000D01*
X1055000Y935000D02*
Y985000D01*
X1055500D01*
X1055000Y935000D02*
X1055500D01*
X1104500D02*
X1105000D01*
X1104500Y985000D02*
X1105000D01*
X1072000D02*
X1088000D01*
X1072000Y935000D02*
X1088000D01*
X1185000D02*
Y985000D01*
X1135000Y935000D02*
Y985000D01*
X1135500D01*
X1135000Y935000D02*
X1135500D01*
X1184500D02*
X1185000D01*
X1184500Y985000D02*
X1185000D01*
X1152000D02*
X1168000D01*
X1152000Y935000D02*
X1168000D01*
X1265000D02*
Y985000D01*
X1215000Y935000D02*
Y985000D01*
X1215500D01*
X1215000Y935000D02*
X1215500D01*
X1264500D02*
X1265000D01*
X1264500Y985000D02*
X1265000D01*
X1232000D02*
X1248000D01*
X1232000Y935000D02*
X1248000D01*
X625000Y1015000D02*
Y1065000D01*
X575000Y1015000D02*
Y1065000D01*
X575500D01*
X575000Y1015000D02*
X575500D01*
X624500D02*
X625000D01*
X624500Y1065000D02*
X625000D01*
X592000D02*
X608000D01*
X592000Y1015000D02*
X608000D01*
X705000D02*
Y1065000D01*
X655000Y1015000D02*
Y1065000D01*
X655500D01*
X655000Y1015000D02*
X655500D01*
X704500D02*
X705000D01*
X704500Y1065000D02*
X705000D01*
X672000D02*
X688000D01*
X672000Y1015000D02*
X688000D01*
X1345000Y935000D02*
Y985000D01*
X1295000Y935000D02*
Y985000D01*
X1295500D01*
X1295000Y935000D02*
X1295500D01*
X1344500D02*
X1345000D01*
X1344500Y985000D02*
X1345000D01*
X1312000D02*
X1328000D01*
X1312000Y935000D02*
X1328000D01*
X705000Y1095000D02*
Y1145000D01*
X655000Y1095000D02*
Y1145000D01*
X655500D01*
X655000Y1095000D02*
X655500D01*
X704500D02*
X705000D01*
X704500Y1145000D02*
X705000D01*
X672000D02*
X688000D01*
X672000Y1095000D02*
X688000D01*
X625000D02*
Y1145000D01*
X575000Y1095000D02*
Y1145000D01*
X575500D01*
X575000Y1095000D02*
X575500D01*
X624500D02*
X625000D01*
X624500Y1145000D02*
X625000D01*
X592000D02*
X608000D01*
X592000Y1095000D02*
X608000D01*
X1345000Y1015000D02*
Y1065000D01*
X1295000Y1015000D02*
Y1065000D01*
X1295500D01*
X1295000Y1015000D02*
X1295500D01*
X1344500D02*
X1345000D01*
X1344500Y1065000D02*
X1345000D01*
X1312000D02*
X1328000D01*
X1312000Y1015000D02*
X1328000D01*
X1265000Y1095000D02*
Y1145000D01*
X1215000Y1095000D02*
Y1145000D01*
X1215500D01*
X1215000Y1095000D02*
X1215500D01*
X1264500D02*
X1265000D01*
X1264500Y1145000D02*
X1265000D01*
X1232000D02*
X1248000D01*
X1232000Y1095000D02*
X1248000D01*
X1185000Y1015000D02*
Y1065000D01*
X1135000Y1015000D02*
Y1065000D01*
X1135500D01*
X1135000Y1015000D02*
X1135500D01*
X1184500D02*
X1185000D01*
X1184500Y1065000D02*
X1185000D01*
X1152000D02*
X1168000D01*
X1152000Y1015000D02*
X1168000D01*
X1265000D02*
Y1065000D01*
X1215000Y1015000D02*
Y1065000D01*
X1215500D01*
X1215000Y1015000D02*
X1215500D01*
X1264500D02*
X1265000D01*
X1264500Y1065000D02*
X1265000D01*
X1232000D02*
X1248000D01*
X1232000Y1015000D02*
X1248000D01*
X1185000Y1095000D02*
Y1145000D01*
X1135000Y1095000D02*
Y1145000D01*
X1135500D01*
X1135000Y1095000D02*
X1135500D01*
X1184500D02*
X1185000D01*
X1184500Y1145000D02*
X1185000D01*
X1152000D02*
X1168000D01*
X1152000Y1095000D02*
X1168000D01*
X785000D02*
Y1145000D01*
X735000Y1095000D02*
Y1145000D01*
X735500D01*
X735000Y1095000D02*
X735500D01*
X784500D02*
X785000D01*
X784500Y1145000D02*
X785000D01*
X752000D02*
X768000D01*
X752000Y1095000D02*
X768000D01*
X865000D02*
Y1145000D01*
X815000Y1095000D02*
Y1145000D01*
X815500D01*
X815000Y1095000D02*
X815500D01*
X864500D02*
X865000D01*
X864500Y1145000D02*
X865000D01*
X832000D02*
X848000D01*
X832000Y1095000D02*
X848000D01*
X1025000D02*
Y1145000D01*
X975000Y1095000D02*
Y1145000D01*
X975500D01*
X975000Y1095000D02*
X975500D01*
X1024500D02*
X1025000D01*
X1024500Y1145000D02*
X1025000D01*
X992000D02*
X1008000D01*
X992000Y1095000D02*
X1008000D01*
X945000D02*
Y1145000D01*
X895000Y1095000D02*
Y1145000D01*
X895500D01*
X895000Y1095000D02*
X895500D01*
X944500D02*
X945000D01*
X944500Y1145000D02*
X945000D01*
X912000D02*
X928000D01*
X912000Y1095000D02*
X928000D01*
X1105000D02*
Y1145000D01*
X1055000Y1095000D02*
Y1145000D01*
X1055500D01*
X1055000Y1095000D02*
X1055500D01*
X1104500D02*
X1105000D01*
X1104500Y1145000D02*
X1105000D01*
X1072000D02*
X1088000D01*
X1072000Y1095000D02*
X1088000D01*
X865000Y1015000D02*
Y1065000D01*
X815000Y1015000D02*
Y1065000D01*
X815500D01*
X815000Y1015000D02*
X815500D01*
X864500D02*
X865000D01*
X864500Y1065000D02*
X865000D01*
X832000D02*
X848000D01*
X832000Y1015000D02*
X848000D01*
X785000D02*
Y1065000D01*
X735000Y1015000D02*
Y1065000D01*
X735500D01*
X735000Y1015000D02*
X735500D01*
X784500D02*
X785000D01*
X784500Y1065000D02*
X785000D01*
X752000D02*
X768000D01*
X752000Y1015000D02*
X768000D01*
X945000D02*
Y1065000D01*
X895000Y1015000D02*
Y1065000D01*
X895500D01*
X895000Y1015000D02*
X895500D01*
X944500D02*
X945000D01*
X944500Y1065000D02*
X945000D01*
X912000D02*
X928000D01*
X912000Y1015000D02*
X928000D01*
X1025000D02*
Y1065000D01*
X975000Y1015000D02*
Y1065000D01*
X975500D01*
X975000Y1015000D02*
X975500D01*
X1024500D02*
X1025000D01*
X1024500Y1065000D02*
X1025000D01*
X992000D02*
X1008000D01*
X992000Y1015000D02*
X1008000D01*
X1105000D02*
Y1065000D01*
X1055000Y1015000D02*
Y1065000D01*
X1055500D01*
X1055000Y1015000D02*
X1055500D01*
X1104500D02*
X1105000D01*
X1104500Y1065000D02*
X1105000D01*
X1072000D02*
X1088000D01*
X1072000Y1015000D02*
X1088000D01*
X1025000Y935000D02*
Y985000D01*
X975000Y935000D02*
Y985000D01*
X975500D01*
X975000Y935000D02*
X975500D01*
X1024500D02*
X1025000D01*
X1024500Y985000D02*
X1025000D01*
X992000D02*
X1008000D01*
X992000Y935000D02*
X1008000D01*
D12*
X1354922Y1064843D02*
X1352382Y1062304D01*
Y1057226D01*
X1354922Y1054687D01*
X1365078D01*
X1367617Y1057226D01*
Y1062304D01*
X1365078Y1064843D01*
X1367617Y1080078D02*
Y1069922D01*
X1357461Y1080078D01*
X1354922D01*
X1352382Y1077539D01*
Y1072461D01*
X1354922Y1069922D01*
X1352382Y1085157D02*
Y1095313D01*
X1354922D01*
X1365078Y1085157D01*
X1367617D01*
X560000Y772617D02*
X554922D01*
X557461D01*
Y759922D01*
X554922Y757383D01*
X552383D01*
X549843Y759922D01*
X565078Y757383D02*
X570157D01*
X567618D01*
Y772617D01*
X565078Y770078D01*
X499687Y1047617D02*
Y1034922D01*
X502226Y1032383D01*
X507304D01*
X509843Y1034922D01*
Y1047617D01*
X514922Y1045078D02*
X517461Y1047617D01*
X522539D01*
X525078Y1045078D01*
Y1042539D01*
X522539Y1040000D01*
X520000D01*
X522539D01*
X525078Y1037461D01*
Y1034922D01*
X522539Y1032383D01*
X517461D01*
X514922Y1034922D01*
X530157Y1047617D02*
X540313D01*
Y1045078D01*
X530157Y1034922D01*
Y1032383D01*
X1194922Y984843D02*
X1192382Y982304D01*
Y977226D01*
X1194922Y974687D01*
X1205078D01*
X1207617Y977226D01*
Y982304D01*
X1205078Y984843D01*
X1207617Y1000078D02*
Y989922D01*
X1197461Y1000078D01*
X1194922D01*
X1192382Y997539D01*
Y992461D01*
X1194922Y989922D01*
X1207617Y1012774D02*
X1192382D01*
X1200000Y1005157D01*
Y1015313D01*
X902226Y967617D02*
Y954922D01*
X904765Y952382D01*
X909843D01*
X912383Y954922D01*
Y967617D01*
X927618Y952382D02*
X917461D01*
X927618Y962539D01*
Y965078D01*
X925078Y967617D01*
X920000D01*
X917461Y965078D01*
X932696Y952382D02*
X937774D01*
X935235D01*
Y967617D01*
X932696Y965078D01*
X819687Y967617D02*
Y954922D01*
X822226Y952382D01*
X827304D01*
X829843Y954922D01*
Y967617D01*
X845078Y952382D02*
X834922D01*
X845078Y962539D01*
Y965078D01*
X842539Y967617D01*
X837461D01*
X834922Y965078D01*
X850157D02*
X852696Y967617D01*
X857774D01*
X860313Y965078D01*
Y954922D01*
X857774Y952382D01*
X852696D01*
X850157Y954922D01*
Y965078D01*
X874922Y984843D02*
X872382Y982304D01*
Y977226D01*
X874922Y974687D01*
X885078D01*
X887617Y977226D01*
Y982304D01*
X885078Y984843D01*
X887617Y1000078D02*
Y989922D01*
X877461Y1000078D01*
X874922D01*
X872382Y997539D01*
Y992461D01*
X874922Y989922D01*
Y1005157D02*
X872382Y1007696D01*
Y1012774D01*
X874922Y1015313D01*
X885078D01*
X887617Y1012774D01*
Y1007696D01*
X885078Y1005157D01*
X874922D01*
X954922Y987383D02*
X952382Y984843D01*
Y979765D01*
X954922Y977226D01*
X965078D01*
X967617Y979765D01*
Y984843D01*
X965078Y987383D01*
X967617Y1002617D02*
Y992461D01*
X957461Y1002617D01*
X954922D01*
X952382Y1000078D01*
Y995000D01*
X954922Y992461D01*
X967617Y1007696D02*
Y1012774D01*
Y1010235D01*
X952382D01*
X954922Y1007696D01*
X581654Y886348D02*
Y873652D01*
X584193Y871113D01*
X589272D01*
X591811Y873652D01*
Y886348D01*
X596889Y871113D02*
X601968D01*
X599428D01*
Y886348D01*
X596889Y883808D01*
X617203Y871113D02*
Y886348D01*
X609585Y878730D01*
X619742D01*
X740956Y967617D02*
Y954922D01*
X743495Y952382D01*
X748574D01*
X751113Y954922D01*
Y967617D01*
X756191Y952382D02*
X761270D01*
X758730D01*
Y967617D01*
X756191Y965078D01*
X768887Y954922D02*
X771426Y952382D01*
X776505D01*
X779044Y954922D01*
Y965078D01*
X776505Y967617D01*
X771426D01*
X768887Y965078D01*
Y962539D01*
X771426Y960000D01*
X779044D01*
X660956Y967617D02*
Y954922D01*
X663495Y952382D01*
X668574D01*
X671113Y954922D01*
Y967617D01*
X676191Y952382D02*
X681270D01*
X678730D01*
Y967617D01*
X676191Y965078D01*
X688887D02*
X691426Y967617D01*
X696505D01*
X699044Y965078D01*
Y962539D01*
X696505Y960000D01*
X699044Y957461D01*
Y954922D01*
X696505Y952382D01*
X691426D01*
X688887Y954922D01*
Y957461D01*
X691426Y960000D01*
X688887Y962539D01*
Y965078D01*
X691426Y960000D02*
X696505D01*
X580956Y967617D02*
Y954922D01*
X583495Y952382D01*
X588574D01*
X591113Y954922D01*
Y967617D01*
X596191Y952382D02*
X601270D01*
X598730D01*
Y967617D01*
X596191Y965078D01*
X608887Y967617D02*
X619044D01*
Y965078D01*
X608887Y954922D01*
Y952382D01*
X902236Y887910D02*
Y875214D01*
X904775Y872674D01*
X909854D01*
X912393Y875214D01*
Y887910D01*
X917471Y872674D02*
X922550D01*
X920010D01*
Y887910D01*
X917471Y885370D01*
X930167D02*
X932706Y887910D01*
X937785D01*
X940324Y885370D01*
Y875214D01*
X937785Y872674D01*
X932706D01*
X930167Y875214D01*
Y885370D01*
X794922Y906113D02*
X792382Y903574D01*
Y898495D01*
X794922Y895956D01*
X805078D01*
X807617Y898495D01*
Y903574D01*
X805078Y906113D01*
X807617Y911191D02*
Y916270D01*
Y913730D01*
X792382D01*
X794922Y911191D01*
X807617Y934044D02*
Y923887D01*
X797461Y934044D01*
X794922D01*
X792382Y931505D01*
Y926426D01*
X794922Y923887D01*
X823042Y887910D02*
Y875214D01*
X825582Y872674D01*
X830660D01*
X833199Y875214D01*
Y887910D01*
X838277Y872674D02*
X843356D01*
X840817D01*
Y887910D01*
X838277Y885370D01*
X850973Y872674D02*
X856052D01*
X853512D01*
Y887910D01*
X850973Y885370D01*
X874922Y908652D02*
X872383Y906113D01*
Y901034D01*
X874922Y898495D01*
X885078D01*
X887617Y901034D01*
Y906113D01*
X885078Y908652D01*
X887617Y913730D02*
Y918809D01*
Y916270D01*
X872383D01*
X874922Y913730D01*
X887617Y926426D02*
Y931505D01*
Y928966D01*
X872383D01*
X874922Y926426D01*
X741310Y887617D02*
Y874922D01*
X743849Y872382D01*
X748928D01*
X751467Y874922D01*
Y887617D01*
X756545Y872382D02*
X761624D01*
X759084D01*
Y887617D01*
X756545Y885078D01*
X779398Y872382D02*
X769241D01*
X779398Y882539D01*
Y885078D01*
X776859Y887617D01*
X771780D01*
X769241Y885078D01*
X634922Y906113D02*
X632382Y903574D01*
Y898495D01*
X634922Y895956D01*
X645078D01*
X647617Y898495D01*
Y903574D01*
X645078Y906113D01*
X647617Y911191D02*
Y916270D01*
Y913730D01*
X632382D01*
X634922Y911191D01*
X647617Y931505D02*
X632382D01*
X640000Y923887D01*
Y934044D01*
X714922Y906113D02*
X712382Y903574D01*
Y898495D01*
X714922Y895956D01*
X725078D01*
X727617Y898495D01*
Y903574D01*
X725078Y906113D01*
X727617Y911191D02*
Y916270D01*
Y913730D01*
X712382D01*
X714922Y911191D01*
Y923887D02*
X712382Y926426D01*
Y931505D01*
X714922Y934044D01*
X717461D01*
X720000Y931505D01*
Y928966D01*
Y931505D01*
X722539Y934044D01*
X725078D01*
X727617Y931505D01*
Y926426D01*
X725078Y923887D01*
X662117Y887617D02*
Y874922D01*
X664656Y872383D01*
X669735D01*
X672274Y874922D01*
Y887617D01*
X677352Y872383D02*
X682431D01*
X679892D01*
Y887617D01*
X677352Y885078D01*
X690048D02*
X692587Y887617D01*
X697666D01*
X700205Y885078D01*
Y882539D01*
X697666Y880000D01*
X695126D01*
X697666D01*
X700205Y877461D01*
Y874922D01*
X697666Y872383D01*
X692587D01*
X690048Y874922D01*
X1227130Y887617D02*
Y874922D01*
X1229669Y872383D01*
X1234748D01*
X1237287Y874922D01*
Y887617D01*
X1252522D02*
X1247443Y885078D01*
X1242365Y880000D01*
Y874922D01*
X1244904Y872383D01*
X1249983D01*
X1252522Y874922D01*
Y877461D01*
X1249983Y880000D01*
X1242365D01*
X1147433Y888444D02*
Y875748D01*
X1149972Y873209D01*
X1155050D01*
X1157589Y875748D01*
Y888444D01*
X1162668D02*
X1172825D01*
Y885904D01*
X1162668Y875748D01*
Y873209D01*
X1194922Y907461D02*
X1192382Y904922D01*
Y899843D01*
X1194922Y897304D01*
X1205078D01*
X1207617Y899843D01*
Y904922D01*
X1205078Y907461D01*
X1192382Y912539D02*
Y922696D01*
X1194922D01*
X1205078Y912539D01*
X1207617D01*
X634922Y1064843D02*
X632382Y1062304D01*
Y1057226D01*
X634922Y1054687D01*
X645078D01*
X647617Y1057226D01*
Y1062304D01*
X645078Y1064843D01*
X634922Y1069922D02*
X632382Y1072461D01*
Y1077539D01*
X634922Y1080078D01*
X637461D01*
X640000Y1077539D01*
Y1075000D01*
Y1077539D01*
X642539Y1080078D01*
X645078D01*
X647617Y1077539D01*
Y1072461D01*
X645078Y1069922D01*
X632382Y1095313D02*
X634922Y1090235D01*
X640000Y1085157D01*
X645078D01*
X647617Y1087696D01*
Y1092774D01*
X645078Y1095313D01*
X642539D01*
X640000Y1092774D01*
Y1085157D01*
X1066970Y887617D02*
Y874922D01*
X1069509Y872383D01*
X1074587D01*
X1077127Y874922D01*
Y887617D01*
X1082205Y885078D02*
X1084744Y887617D01*
X1089822D01*
X1092362Y885078D01*
Y882539D01*
X1089822Y880000D01*
X1092362Y877461D01*
Y874922D01*
X1089822Y872383D01*
X1084744D01*
X1082205Y874922D01*
Y877461D01*
X1084744Y880000D01*
X1082205Y882539D01*
Y885078D01*
X1084744Y880000D02*
X1089822D01*
X987777Y887174D02*
Y874478D01*
X990316Y871939D01*
X995395D01*
X997934Y874478D01*
Y887174D01*
X1003012Y874478D02*
X1005551Y871939D01*
X1010630D01*
X1013169Y874478D01*
Y884634D01*
X1010630Y887174D01*
X1005551D01*
X1003012Y884634D01*
Y882095D01*
X1005551Y879556D01*
X1013169D01*
X1034922Y907461D02*
X1032382Y904922D01*
Y899843D01*
X1034922Y897304D01*
X1045078D01*
X1047617Y899843D01*
Y904922D01*
X1045078Y907461D01*
Y912539D02*
X1047617Y915078D01*
Y920157D01*
X1045078Y922696D01*
X1034922D01*
X1032382Y920157D01*
Y915078D01*
X1034922Y912539D01*
X1037461D01*
X1040000Y915078D01*
Y922696D01*
X954922Y906113D02*
X952382Y903574D01*
Y898495D01*
X954922Y895956D01*
X965078D01*
X967617Y898495D01*
Y903574D01*
X965078Y906113D01*
X967617Y911191D02*
Y916270D01*
Y913730D01*
X952382D01*
X954922Y911191D01*
Y923887D02*
X952382Y926426D01*
Y931505D01*
X954922Y934044D01*
X965078D01*
X967617Y931505D01*
Y926426D01*
X965078Y923887D01*
X954922D01*
X1114922Y907461D02*
X1112382Y904922D01*
Y899843D01*
X1114922Y897304D01*
X1125078D01*
X1127617Y899843D01*
Y904922D01*
X1125078Y907461D01*
X1114922Y912539D02*
X1112382Y915078D01*
Y920157D01*
X1114922Y922696D01*
X1117461D01*
X1120000Y920157D01*
X1122539Y922696D01*
X1125078D01*
X1127617Y920157D01*
Y915078D01*
X1125078Y912539D01*
X1122539D01*
X1120000Y915078D01*
X1117461Y912539D01*
X1114922D01*
X1120000Y915078D02*
Y920157D01*
X714922Y986113D02*
X712382Y983574D01*
Y978495D01*
X714922Y975956D01*
X725078D01*
X727617Y978495D01*
Y983574D01*
X725078Y986113D01*
X727617Y991191D02*
Y996270D01*
Y993730D01*
X712382D01*
X714922Y991191D01*
Y1003887D02*
X712382Y1006426D01*
Y1011505D01*
X714922Y1014044D01*
X717461D01*
X720000Y1011505D01*
X722539Y1014044D01*
X725078D01*
X727617Y1011505D01*
Y1006426D01*
X725078Y1003887D01*
X722539D01*
X720000Y1006426D01*
X717461Y1003887D01*
X714922D01*
X720000Y1006426D02*
Y1011505D01*
X794922Y986113D02*
X792383Y983574D01*
Y978495D01*
X794922Y975956D01*
X805078D01*
X807617Y978495D01*
Y983574D01*
X805078Y986113D01*
X807617Y991191D02*
Y996270D01*
Y993730D01*
X792383D01*
X794922Y991191D01*
X805078Y1003887D02*
X807617Y1006426D01*
Y1011505D01*
X805078Y1014044D01*
X794922D01*
X792383Y1011505D01*
Y1006426D01*
X794922Y1003887D01*
X797461D01*
X800000Y1006426D01*
Y1014044D01*
X634922Y986113D02*
X632382Y983574D01*
Y978495D01*
X634922Y975956D01*
X645078D01*
X647617Y978495D01*
Y983574D01*
X645078Y986113D01*
X647617Y991191D02*
Y996270D01*
Y993730D01*
X632382D01*
X634922Y991191D01*
X632382Y1003887D02*
Y1014044D01*
X634922D01*
X645078Y1003887D01*
X647617D01*
X907423Y807617D02*
Y794922D01*
X909962Y792383D01*
X915041D01*
X917580Y794922D01*
Y807617D01*
X922658Y805078D02*
X925197Y807617D01*
X930275D01*
X932815Y805078D01*
Y802539D01*
X930275Y800000D01*
X927736D01*
X930275D01*
X932815Y797461D01*
Y794922D01*
X930275Y792383D01*
X925197D01*
X922658Y794922D01*
X750306Y807617D02*
Y794922D01*
X752845Y792383D01*
X757924D01*
X760463Y794922D01*
Y807617D01*
X765541Y792383D02*
X770620D01*
X768081D01*
Y807617D01*
X765541Y805078D01*
X826960Y807617D02*
Y794922D01*
X829499Y792383D01*
X834577D01*
X837117Y794922D01*
Y807617D01*
X852352Y792383D02*
X842195D01*
X852352Y802539D01*
Y805078D01*
X849813Y807617D01*
X844734D01*
X842195Y805078D01*
X1274922Y907461D02*
X1272382Y904922D01*
Y899843D01*
X1274922Y897304D01*
X1285078D01*
X1287617Y899843D01*
Y904922D01*
X1285078Y907461D01*
X1272382Y922696D02*
X1274922Y917617D01*
X1280000Y912539D01*
X1285078D01*
X1287617Y915078D01*
Y920157D01*
X1285078Y922696D01*
X1282539D01*
X1280000Y920157D01*
Y912539D01*
X1354922Y984843D02*
X1352383Y982304D01*
Y977226D01*
X1354922Y974687D01*
X1365078D01*
X1367617Y977226D01*
Y982304D01*
X1365078Y984843D01*
X1367617Y1000078D02*
Y989922D01*
X1357461Y1000078D01*
X1354922D01*
X1352383Y997539D01*
Y992461D01*
X1354922Y989922D01*
X1352383Y1015313D02*
X1354922Y1010235D01*
X1360000Y1005157D01*
X1365078D01*
X1367617Y1007696D01*
Y1012774D01*
X1365078Y1015313D01*
X1362539D01*
X1360000Y1012774D01*
Y1005157D01*
X1274922Y984843D02*
X1272382Y982304D01*
Y977226D01*
X1274922Y974687D01*
X1285078D01*
X1287617Y977226D01*
Y982304D01*
X1285078Y984843D01*
X1287617Y1000078D02*
Y989922D01*
X1277461Y1000078D01*
X1274922D01*
X1272382Y997539D01*
Y992461D01*
X1274922Y989922D01*
X1272382Y1015313D02*
Y1005157D01*
X1280000D01*
X1277461Y1010235D01*
Y1012774D01*
X1280000Y1015313D01*
X1285078D01*
X1287617Y1012774D01*
Y1007696D01*
X1285078Y1005157D01*
X1067079Y807617D02*
Y794922D01*
X1069618Y792383D01*
X1074696D01*
X1077235Y794922D01*
Y807617D01*
X1092471D02*
X1082314D01*
Y800000D01*
X1087392Y802539D01*
X1089931D01*
X1092471Y800000D01*
Y794922D01*
X1089931Y792383D01*
X1084853D01*
X1082314Y794922D01*
X1034922Y827461D02*
X1032382Y824922D01*
Y819843D01*
X1034922Y817304D01*
X1045078D01*
X1047617Y819843D01*
Y824922D01*
X1045078Y827461D01*
X1047617Y840157D02*
X1032382D01*
X1040000Y832539D01*
Y842696D01*
X987886Y807617D02*
Y794922D01*
X990425Y792383D01*
X995503D01*
X998043Y794922D01*
Y807617D01*
X1010739Y792383D02*
Y807617D01*
X1003121Y800000D01*
X1013278D01*
X634922Y1149843D02*
X632383Y1147304D01*
Y1142226D01*
X634922Y1139687D01*
X645078D01*
X647617Y1142226D01*
Y1147304D01*
X645078Y1149843D01*
X634922Y1154922D02*
X632383Y1157461D01*
Y1162539D01*
X634922Y1165078D01*
X637461D01*
X640000Y1162539D01*
Y1160000D01*
Y1162539D01*
X642539Y1165078D01*
X645078D01*
X647617Y1162539D01*
Y1157461D01*
X645078Y1154922D01*
X634922Y1170157D02*
X632383Y1172696D01*
Y1177774D01*
X634922Y1180313D01*
X637461D01*
X640000Y1177774D01*
X642539Y1180313D01*
X645078D01*
X647617Y1177774D01*
Y1172696D01*
X645078Y1170157D01*
X642539D01*
X640000Y1172696D01*
X637461Y1170157D01*
X634922D01*
X640000Y1172696D02*
Y1177774D01*
X667304Y807617D02*
Y794922D01*
X669843Y792383D01*
X674922D01*
X677461Y794922D01*
Y807617D01*
X682539Y805078D02*
X685078Y807617D01*
X690157D01*
X692696Y805078D01*
Y794922D01*
X690157Y792383D01*
X685078D01*
X682539Y794922D01*
Y805078D01*
X954922Y827461D02*
X952382Y824922D01*
Y819843D01*
X954922Y817304D01*
X965078D01*
X967617Y819843D01*
Y824922D01*
X965078Y827461D01*
X954922Y832539D02*
X952382Y835078D01*
Y840157D01*
X954922Y842696D01*
X957461D01*
X960000Y840157D01*
Y837617D01*
Y840157D01*
X962539Y842696D01*
X965078D01*
X967617Y840157D01*
Y835078D01*
X965078Y832539D01*
X794922Y825000D02*
X792382Y822461D01*
Y817383D01*
X794922Y814843D01*
X805078D01*
X807617Y817383D01*
Y822461D01*
X805078Y825000D01*
X807617Y830078D02*
Y835157D01*
Y832617D01*
X792382D01*
X794922Y830078D01*
X874922Y827461D02*
X872382Y824922D01*
Y819843D01*
X874922Y817304D01*
X885078D01*
X887617Y819843D01*
Y824922D01*
X885078Y827461D01*
X887617Y842696D02*
Y832539D01*
X877461Y842696D01*
X874922D01*
X872382Y840157D01*
Y835078D01*
X874922Y832539D01*
X1114922Y827461D02*
X1112383Y824922D01*
Y819843D01*
X1114922Y817304D01*
X1125078D01*
X1127617Y819843D01*
Y824922D01*
X1125078Y827461D01*
X1112383Y842696D02*
Y832539D01*
X1120000D01*
X1117461Y837617D01*
Y840157D01*
X1120000Y842696D01*
X1125078D01*
X1127617Y840157D01*
Y835078D01*
X1125078Y832539D01*
X1274922Y1064843D02*
X1272382Y1062304D01*
Y1057226D01*
X1274922Y1054687D01*
X1285078D01*
X1287617Y1057226D01*
Y1062304D01*
X1285078Y1064843D01*
X1287617Y1080078D02*
Y1069922D01*
X1277461Y1080078D01*
X1274922D01*
X1272382Y1077539D01*
Y1072461D01*
X1274922Y1069922D01*
Y1085157D02*
X1272382Y1087696D01*
Y1092774D01*
X1274922Y1095313D01*
X1277461D01*
X1280000Y1092774D01*
X1282539Y1095313D01*
X1285078D01*
X1287617Y1092774D01*
Y1087696D01*
X1285078Y1085157D01*
X1282539D01*
X1280000Y1087696D01*
X1277461Y1085157D01*
X1274922D01*
X1280000Y1087696D02*
Y1092774D01*
X1194922Y1064843D02*
X1192382Y1062304D01*
Y1057226D01*
X1194922Y1054687D01*
X1205078D01*
X1207617Y1057226D01*
Y1062304D01*
X1205078Y1064843D01*
X1207617Y1080078D02*
Y1069922D01*
X1197461Y1080078D01*
X1194922D01*
X1192382Y1077539D01*
Y1072461D01*
X1194922Y1069922D01*
X1205078Y1085157D02*
X1207617Y1087696D01*
Y1092774D01*
X1205078Y1095313D01*
X1194922D01*
X1192382Y1092774D01*
Y1087696D01*
X1194922Y1085157D01*
X1197461D01*
X1200000Y1087696D01*
Y1095313D01*
X1194922Y1149843D02*
X1192383Y1147304D01*
Y1142226D01*
X1194922Y1139687D01*
X1205078D01*
X1207617Y1142226D01*
Y1147304D01*
X1205078Y1149843D01*
X1207617Y1162539D02*
X1192383D01*
X1200000Y1154922D01*
Y1165078D01*
X1192383Y1180313D02*
Y1170157D01*
X1200000D01*
X1197461Y1175235D01*
Y1177774D01*
X1200000Y1180313D01*
X1205078D01*
X1207617Y1177774D01*
Y1172696D01*
X1205078Y1170157D01*
X1274922Y1149843D02*
X1272383Y1147304D01*
Y1142226D01*
X1274922Y1139687D01*
X1285078D01*
X1287617Y1142226D01*
Y1147304D01*
X1285078Y1149843D01*
X1287617Y1162539D02*
X1272383D01*
X1280000Y1154922D01*
Y1165078D01*
X1272383Y1180313D02*
X1274922Y1175235D01*
X1280000Y1170157D01*
X1285078D01*
X1287617Y1172696D01*
Y1177774D01*
X1285078Y1180313D01*
X1282539D01*
X1280000Y1177774D01*
Y1170157D01*
X794922Y1149843D02*
X792383Y1147304D01*
Y1142226D01*
X794922Y1139687D01*
X805078D01*
X807617Y1142226D01*
Y1147304D01*
X805078Y1149843D01*
X807617Y1162539D02*
X792383D01*
X800000Y1154922D01*
Y1165078D01*
X794922Y1170157D02*
X792383Y1172696D01*
Y1177774D01*
X794922Y1180313D01*
X805078D01*
X807617Y1177774D01*
Y1172696D01*
X805078Y1170157D01*
X794922D01*
X714922Y1149843D02*
X712383Y1147304D01*
Y1142226D01*
X714922Y1139687D01*
X725078D01*
X727617Y1142226D01*
Y1147304D01*
X725078Y1149843D01*
X714922Y1154922D02*
X712383Y1157461D01*
Y1162539D01*
X714922Y1165078D01*
X717461D01*
X720000Y1162539D01*
Y1160000D01*
Y1162539D01*
X722539Y1165078D01*
X725078D01*
X727617Y1162539D01*
Y1157461D01*
X725078Y1154922D01*
Y1170157D02*
X727617Y1172696D01*
Y1177774D01*
X725078Y1180313D01*
X714922D01*
X712383Y1177774D01*
Y1172696D01*
X714922Y1170157D01*
X717461D01*
X720000Y1172696D01*
Y1180313D01*
X954922Y1149843D02*
X952383Y1147304D01*
Y1142226D01*
X954922Y1139687D01*
X965078D01*
X967617Y1142226D01*
Y1147304D01*
X965078Y1149843D01*
X967617Y1162539D02*
X952383D01*
X960000Y1154922D01*
Y1165078D01*
X967617Y1180313D02*
Y1170157D01*
X957461Y1180313D01*
X954922D01*
X952383Y1177774D01*
Y1172696D01*
X954922Y1170157D01*
X874922Y1152383D02*
X872383Y1149843D01*
Y1144765D01*
X874922Y1142226D01*
X885078D01*
X887617Y1144765D01*
Y1149843D01*
X885078Y1152383D01*
X887617Y1165078D02*
X872383D01*
X880000Y1157461D01*
Y1167618D01*
X887617Y1172696D02*
Y1177774D01*
Y1175235D01*
X872383D01*
X874922Y1172696D01*
X1034922Y1149843D02*
X1032383Y1147304D01*
Y1142226D01*
X1034922Y1139687D01*
X1045078D01*
X1047617Y1142226D01*
Y1147304D01*
X1045078Y1149843D01*
X1047617Y1162539D02*
X1032383D01*
X1040000Y1154922D01*
Y1165078D01*
X1034922Y1170157D02*
X1032383Y1172696D01*
Y1177774D01*
X1034922Y1180313D01*
X1037461D01*
X1040000Y1177774D01*
Y1175235D01*
Y1177774D01*
X1042539Y1180313D01*
X1045078D01*
X1047617Y1177774D01*
Y1172696D01*
X1045078Y1170157D01*
X1114922Y1149843D02*
X1112383Y1147304D01*
Y1142226D01*
X1114922Y1139687D01*
X1125078D01*
X1127617Y1142226D01*
Y1147304D01*
X1125078Y1149843D01*
X1127617Y1162539D02*
X1112383D01*
X1120000Y1154922D01*
Y1165078D01*
X1127617Y1177774D02*
X1112383D01*
X1120000Y1170157D01*
Y1180313D01*
X794922Y1064843D02*
X792382Y1062304D01*
Y1057226D01*
X794922Y1054687D01*
X805078D01*
X807617Y1057226D01*
Y1062304D01*
X805078Y1064843D01*
X794922Y1069922D02*
X792382Y1072461D01*
Y1077539D01*
X794922Y1080078D01*
X797461D01*
X800000Y1077539D01*
Y1075000D01*
Y1077539D01*
X802539Y1080078D01*
X805078D01*
X807617Y1077539D01*
Y1072461D01*
X805078Y1069922D01*
X807617Y1092774D02*
X792382D01*
X800000Y1085157D01*
Y1095313D01*
X874922Y1064843D02*
X872383Y1062304D01*
Y1057226D01*
X874922Y1054687D01*
X885078D01*
X887617Y1057226D01*
Y1062304D01*
X885078Y1064843D01*
X874922Y1069922D02*
X872383Y1072461D01*
Y1077539D01*
X874922Y1080078D01*
X877461D01*
X880000Y1077539D01*
Y1075000D01*
Y1077539D01*
X882539Y1080078D01*
X885078D01*
X887617Y1077539D01*
Y1072461D01*
X885078Y1069922D01*
X874922Y1085157D02*
X872383Y1087696D01*
Y1092774D01*
X874922Y1095313D01*
X877461D01*
X880000Y1092774D01*
Y1090235D01*
Y1092774D01*
X882539Y1095313D01*
X885078D01*
X887617Y1092774D01*
Y1087696D01*
X885078Y1085157D01*
X714922Y1064843D02*
X712382Y1062304D01*
Y1057226D01*
X714922Y1054687D01*
X725078D01*
X727617Y1057226D01*
Y1062304D01*
X725078Y1064843D01*
X714922Y1069922D02*
X712382Y1072461D01*
Y1077539D01*
X714922Y1080078D01*
X717461D01*
X720000Y1077539D01*
Y1075000D01*
Y1077539D01*
X722539Y1080078D01*
X725078D01*
X727617Y1077539D01*
Y1072461D01*
X725078Y1069922D01*
X712382Y1095313D02*
Y1085157D01*
X720000D01*
X717461Y1090235D01*
Y1092774D01*
X720000Y1095313D01*
X725078D01*
X727617Y1092774D01*
Y1087696D01*
X725078Y1085157D01*
X1034922Y1062383D02*
X1032383Y1059843D01*
Y1054765D01*
X1034922Y1052226D01*
X1045078D01*
X1047617Y1054765D01*
Y1059843D01*
X1045078Y1062383D01*
X1034922Y1067461D02*
X1032383Y1070000D01*
Y1075078D01*
X1034922Y1077618D01*
X1037461D01*
X1040000Y1075078D01*
Y1072539D01*
Y1075078D01*
X1042539Y1077618D01*
X1045078D01*
X1047617Y1075078D01*
Y1070000D01*
X1045078Y1067461D01*
X1047617Y1082696D02*
Y1087774D01*
Y1085235D01*
X1032383D01*
X1034922Y1082696D01*
X1114922Y1064843D02*
X1112383Y1062304D01*
Y1057226D01*
X1114922Y1054687D01*
X1125078D01*
X1127617Y1057226D01*
Y1062304D01*
X1125078Y1064843D01*
X1114922Y1069922D02*
X1112383Y1072461D01*
Y1077539D01*
X1114922Y1080078D01*
X1117461D01*
X1120000Y1077539D01*
Y1075000D01*
Y1077539D01*
X1122539Y1080078D01*
X1125078D01*
X1127617Y1077539D01*
Y1072461D01*
X1125078Y1069922D01*
X1114922Y1085157D02*
X1112383Y1087696D01*
Y1092774D01*
X1114922Y1095313D01*
X1125078D01*
X1127617Y1092774D01*
Y1087696D01*
X1125078Y1085157D01*
X1114922D01*
X954922Y1064843D02*
X952383Y1062304D01*
Y1057226D01*
X954922Y1054687D01*
X965078D01*
X967617Y1057226D01*
Y1062304D01*
X965078Y1064843D01*
X954922Y1069922D02*
X952383Y1072461D01*
Y1077539D01*
X954922Y1080078D01*
X957461D01*
X960000Y1077539D01*
Y1075000D01*
Y1077539D01*
X962539Y1080078D01*
X965078D01*
X967617Y1077539D01*
Y1072461D01*
X965078Y1069922D01*
X967617Y1095313D02*
Y1085157D01*
X957461Y1095313D01*
X954922D01*
X952383Y1092774D01*
Y1087696D01*
X954922Y1085157D01*
X554922Y906113D02*
X552383Y903574D01*
Y898495D01*
X554922Y895956D01*
X565078D01*
X567617Y898495D01*
Y903574D01*
X565078Y906113D01*
X567617Y911191D02*
Y916270D01*
Y913730D01*
X552383D01*
X554922Y911191D01*
X552383Y934044D02*
Y923887D01*
X560000D01*
X557461Y928966D01*
Y931505D01*
X560000Y934044D01*
X565078D01*
X567617Y931505D01*
Y926426D01*
X565078Y923887D01*
X500956Y967617D02*
Y954922D01*
X503495Y952382D01*
X508574D01*
X511113Y954922D01*
Y967617D01*
X516191Y952382D02*
X521270D01*
X518730D01*
Y967617D01*
X516191Y965078D01*
X539044Y967617D02*
X533965Y965078D01*
X528887Y960000D01*
Y954922D01*
X531426Y952382D01*
X536505D01*
X539044Y954922D01*
Y957461D01*
X536505Y960000D01*
X528887D01*
X554922Y1064843D02*
X552382Y1062304D01*
Y1057226D01*
X554922Y1054687D01*
X565078D01*
X567617Y1057226D01*
Y1062304D01*
X565078Y1064843D01*
X554922Y1069922D02*
X552382Y1072461D01*
Y1077539D01*
X554922Y1080078D01*
X557461D01*
X560000Y1077539D01*
Y1075000D01*
Y1077539D01*
X562539Y1080078D01*
X565078D01*
X567617Y1077539D01*
Y1072461D01*
X565078Y1069922D01*
X552382Y1085157D02*
Y1095313D01*
X554922D01*
X565078Y1085157D01*
X567617D01*
X554922Y986113D02*
X552383Y983574D01*
Y978495D01*
X554922Y975956D01*
X565078D01*
X567617Y978495D01*
Y983574D01*
X565078Y986113D01*
X567617Y991191D02*
Y996270D01*
Y993730D01*
X552383D01*
X554922Y991191D01*
X552383Y1014044D02*
X554922Y1008966D01*
X560000Y1003887D01*
X565078D01*
X567617Y1006426D01*
Y1011505D01*
X565078Y1014044D01*
X562539D01*
X560000Y1011505D01*
Y1003887D01*
X502461Y887617D02*
Y874922D01*
X505000Y872383D01*
X510079D01*
X512618Y874922D01*
Y887617D01*
X517696Y872383D02*
X522775D01*
X520236D01*
Y887617D01*
X517696Y885078D01*
X540549Y887617D02*
X530392D01*
Y880000D01*
X535471Y882539D01*
X538010D01*
X540549Y880000D01*
Y874922D01*
X538010Y872383D01*
X532932D01*
X530392Y874922D01*
X1059687Y967617D02*
Y954922D01*
X1062226Y952382D01*
X1067304D01*
X1069843Y954922D01*
Y967617D01*
X1085078Y952382D02*
X1074922D01*
X1085078Y962539D01*
Y965078D01*
X1082539Y967617D01*
X1077461D01*
X1074922Y965078D01*
X1090157D02*
X1092696Y967617D01*
X1097774D01*
X1100313Y965078D01*
Y962539D01*
X1097774Y960000D01*
X1095235D01*
X1097774D01*
X1100313Y957461D01*
Y954922D01*
X1097774Y952382D01*
X1092696D01*
X1090157Y954922D01*
X1139687Y967617D02*
Y954922D01*
X1142226Y952382D01*
X1147304D01*
X1149843Y954922D01*
Y967617D01*
X1165078Y952382D02*
X1154922D01*
X1165078Y962539D01*
Y965078D01*
X1162539Y967617D01*
X1157461D01*
X1154922Y965078D01*
X1177774Y952382D02*
Y967617D01*
X1170157Y960000D01*
X1180313D01*
X1034922Y984843D02*
X1032382Y982304D01*
Y977226D01*
X1034922Y974687D01*
X1045078D01*
X1047617Y977226D01*
Y982304D01*
X1045078Y984843D01*
X1047617Y1000078D02*
Y989922D01*
X1037461Y1000078D01*
X1034922D01*
X1032382Y997539D01*
Y992461D01*
X1034922Y989922D01*
X1047617Y1015313D02*
Y1005157D01*
X1037461Y1015313D01*
X1034922D01*
X1032382Y1012774D01*
Y1007696D01*
X1034922Y1005157D01*
X1219687Y967617D02*
Y954922D01*
X1222226Y952382D01*
X1227304D01*
X1229843Y954922D01*
Y967617D01*
X1245078Y952382D02*
X1234922D01*
X1245078Y962539D01*
Y965078D01*
X1242539Y967617D01*
X1237461D01*
X1234922Y965078D01*
X1260313Y967617D02*
X1250157D01*
Y960000D01*
X1255235Y962539D01*
X1257774D01*
X1260313Y960000D01*
Y954922D01*
X1257774Y952382D01*
X1252696D01*
X1250157Y954922D01*
X579687Y1047617D02*
Y1034922D01*
X582226Y1032383D01*
X587304D01*
X589843Y1034922D01*
Y1047617D01*
X594922Y1045078D02*
X597461Y1047617D01*
X602539D01*
X605078Y1045078D01*
Y1042539D01*
X602539Y1040000D01*
X600000D01*
X602539D01*
X605078Y1037461D01*
Y1034922D01*
X602539Y1032383D01*
X597461D01*
X594922Y1034922D01*
X620313Y1047617D02*
X615235Y1045078D01*
X610157Y1040000D01*
Y1034922D01*
X612696Y1032383D01*
X617774D01*
X620313Y1034922D01*
Y1037461D01*
X617774Y1040000D01*
X610157D01*
X659687Y1047617D02*
Y1034922D01*
X662226Y1032383D01*
X667304D01*
X669843Y1034922D01*
Y1047617D01*
X674922Y1045078D02*
X677461Y1047617D01*
X682539D01*
X685078Y1045078D01*
Y1042539D01*
X682539Y1040000D01*
X680000D01*
X682539D01*
X685078Y1037461D01*
Y1034922D01*
X682539Y1032383D01*
X677461D01*
X674922Y1034922D01*
X700313Y1047617D02*
X690157D01*
Y1040000D01*
X695235Y1042539D01*
X697774D01*
X700313Y1040000D01*
Y1034922D01*
X697774Y1032383D01*
X692696D01*
X690157Y1034922D01*
X1299687Y967617D02*
Y954922D01*
X1302226Y952382D01*
X1307304D01*
X1309843Y954922D01*
Y967617D01*
X1325078Y952382D02*
X1314922D01*
X1325078Y962539D01*
Y965078D01*
X1322539Y967617D01*
X1317461D01*
X1314922Y965078D01*
X1340313Y967617D02*
X1335235Y965078D01*
X1330157Y960000D01*
Y954922D01*
X1332696Y952382D01*
X1337774D01*
X1340313Y954922D01*
Y957461D01*
X1337774Y960000D01*
X1330157D01*
X659687Y1127617D02*
Y1114922D01*
X662226Y1112383D01*
X667304D01*
X669843Y1114922D01*
Y1127617D01*
X674922Y1125078D02*
X677461Y1127617D01*
X682539D01*
X685078Y1125078D01*
Y1122539D01*
X682539Y1120000D01*
X680000D01*
X682539D01*
X685078Y1117461D01*
Y1114922D01*
X682539Y1112383D01*
X677461D01*
X674922Y1114922D01*
X690157D02*
X692696Y1112383D01*
X697774D01*
X700313Y1114922D01*
Y1125078D01*
X697774Y1127617D01*
X692696D01*
X690157Y1125078D01*
Y1122539D01*
X692696Y1120000D01*
X700313D01*
X579687Y1127617D02*
Y1114922D01*
X582226Y1112383D01*
X587304D01*
X589843Y1114922D01*
Y1127617D01*
X594922Y1125078D02*
X597461Y1127617D01*
X602539D01*
X605078Y1125078D01*
Y1122539D01*
X602539Y1120000D01*
X600000D01*
X602539D01*
X605078Y1117461D01*
Y1114922D01*
X602539Y1112383D01*
X597461D01*
X594922Y1114922D01*
X610157Y1125078D02*
X612696Y1127617D01*
X617774D01*
X620313Y1125078D01*
Y1122539D01*
X617774Y1120000D01*
X620313Y1117461D01*
Y1114922D01*
X617774Y1112383D01*
X612696D01*
X610157Y1114922D01*
Y1117461D01*
X612696Y1120000D01*
X610157Y1122539D01*
Y1125078D01*
X612696Y1120000D02*
X617774D01*
X1299687Y1047617D02*
Y1034922D01*
X1302226Y1032383D01*
X1307304D01*
X1309843Y1034922D01*
Y1047617D01*
X1325078Y1032383D02*
X1314922D01*
X1325078Y1042539D01*
Y1045078D01*
X1322539Y1047617D01*
X1317461D01*
X1314922Y1045078D01*
X1330157Y1047617D02*
X1340313D01*
Y1045078D01*
X1330157Y1034922D01*
Y1032383D01*
X714922Y827461D02*
X712382Y824922D01*
Y819843D01*
X714922Y817304D01*
X725078D01*
X727617Y819843D01*
Y824922D01*
X725078Y827461D01*
X714922Y832539D02*
X712382Y835078D01*
Y840157D01*
X714922Y842696D01*
X725078D01*
X727617Y840157D01*
Y835078D01*
X725078Y832539D01*
X714922D01*
X1219687Y1127617D02*
Y1114922D01*
X1222226Y1112383D01*
X1227304D01*
X1229843Y1114922D01*
Y1127617D01*
X1242539Y1112383D02*
Y1127617D01*
X1234922Y1120000D01*
X1245078D01*
X1260313Y1127617D02*
X1255235Y1125078D01*
X1250157Y1120000D01*
Y1114922D01*
X1252696Y1112383D01*
X1257774D01*
X1260313Y1114922D01*
Y1117461D01*
X1257774Y1120000D01*
X1250157D01*
X1139687Y1047617D02*
Y1034922D01*
X1142226Y1032383D01*
X1147304D01*
X1149843Y1034922D01*
Y1047617D01*
X1165078Y1032383D02*
X1154922D01*
X1165078Y1042539D01*
Y1045078D01*
X1162539Y1047617D01*
X1157461D01*
X1154922Y1045078D01*
X1170157Y1034922D02*
X1172696Y1032383D01*
X1177774D01*
X1180313Y1034922D01*
Y1045078D01*
X1177774Y1047617D01*
X1172696D01*
X1170157Y1045078D01*
Y1042539D01*
X1172696Y1040000D01*
X1180313D01*
X1219687Y1047617D02*
Y1034922D01*
X1222226Y1032383D01*
X1227304D01*
X1229843Y1034922D01*
Y1047617D01*
X1245078Y1032383D02*
X1234922D01*
X1245078Y1042539D01*
Y1045078D01*
X1242539Y1047617D01*
X1237461D01*
X1234922Y1045078D01*
X1250157D02*
X1252696Y1047617D01*
X1257774D01*
X1260313Y1045078D01*
Y1042539D01*
X1257774Y1040000D01*
X1260313Y1037461D01*
Y1034922D01*
X1257774Y1032383D01*
X1252696D01*
X1250157Y1034922D01*
Y1037461D01*
X1252696Y1040000D01*
X1250157Y1042539D01*
Y1045078D01*
X1252696Y1040000D02*
X1257774D01*
X1139687Y1127617D02*
Y1114922D01*
X1142226Y1112383D01*
X1147304D01*
X1149843Y1114922D01*
Y1127617D01*
X1162539Y1112383D02*
Y1127617D01*
X1154922Y1120000D01*
X1165078D01*
X1180313Y1127617D02*
X1170157D01*
Y1120000D01*
X1175235Y1122539D01*
X1177774D01*
X1180313Y1120000D01*
Y1114922D01*
X1177774Y1112383D01*
X1172696D01*
X1170157Y1114922D01*
X739687Y1127617D02*
Y1114922D01*
X742226Y1112383D01*
X747304D01*
X749843Y1114922D01*
Y1127617D01*
X762539Y1112383D02*
Y1127617D01*
X754922Y1120000D01*
X765078D01*
X770157Y1125078D02*
X772696Y1127617D01*
X777774D01*
X780313Y1125078D01*
Y1114922D01*
X777774Y1112383D01*
X772696D01*
X770157Y1114922D01*
Y1125078D01*
X822226Y1127617D02*
Y1114922D01*
X824765Y1112383D01*
X829843D01*
X832383Y1114922D01*
Y1127617D01*
X845078Y1112383D02*
Y1127617D01*
X837461Y1120000D01*
X847618D01*
X852696Y1112383D02*
X857774D01*
X855235D01*
Y1127617D01*
X852696Y1125078D01*
X979687Y1127617D02*
Y1114922D01*
X982226Y1112383D01*
X987304D01*
X989843Y1114922D01*
Y1127617D01*
X1002539Y1112383D02*
Y1127617D01*
X994922Y1120000D01*
X1005078D01*
X1010157Y1125078D02*
X1012696Y1127617D01*
X1017774D01*
X1020313Y1125078D01*
Y1122539D01*
X1017774Y1120000D01*
X1015235D01*
X1017774D01*
X1020313Y1117461D01*
Y1114922D01*
X1017774Y1112383D01*
X1012696D01*
X1010157Y1114922D01*
X899687Y1127617D02*
Y1114922D01*
X902226Y1112383D01*
X907304D01*
X909843Y1114922D01*
Y1127617D01*
X922539Y1112383D02*
Y1127617D01*
X914922Y1120000D01*
X925078D01*
X940313Y1112383D02*
X930157D01*
X940313Y1122539D01*
Y1125078D01*
X937774Y1127617D01*
X932696D01*
X930157Y1125078D01*
X1059687Y1127617D02*
Y1114922D01*
X1062226Y1112383D01*
X1067304D01*
X1069843Y1114922D01*
Y1127617D01*
X1082539Y1112383D02*
Y1127617D01*
X1074922Y1120000D01*
X1085078D01*
X1097774Y1112383D02*
Y1127617D01*
X1090157Y1120000D01*
X1100313D01*
X819687Y1047617D02*
Y1034922D01*
X822226Y1032383D01*
X827304D01*
X829843Y1034922D01*
Y1047617D01*
X834922Y1045078D02*
X837461Y1047617D01*
X842539D01*
X845078Y1045078D01*
Y1042539D01*
X842539Y1040000D01*
X840000D01*
X842539D01*
X845078Y1037461D01*
Y1034922D01*
X842539Y1032383D01*
X837461D01*
X834922Y1034922D01*
X850157Y1045078D02*
X852696Y1047617D01*
X857774D01*
X860313Y1045078D01*
Y1042539D01*
X857774Y1040000D01*
X855235D01*
X857774D01*
X860313Y1037461D01*
Y1034922D01*
X857774Y1032383D01*
X852696D01*
X850157Y1034922D01*
X739687Y1047617D02*
Y1034922D01*
X742226Y1032383D01*
X747304D01*
X749843Y1034922D01*
Y1047617D01*
X754922Y1045078D02*
X757461Y1047617D01*
X762539D01*
X765078Y1045078D01*
Y1042539D01*
X762539Y1040000D01*
X760000D01*
X762539D01*
X765078Y1037461D01*
Y1034922D01*
X762539Y1032383D01*
X757461D01*
X754922Y1034922D01*
X777774Y1032383D02*
Y1047617D01*
X770157Y1040000D01*
X780313D01*
X899687Y1047617D02*
Y1034922D01*
X902226Y1032383D01*
X907304D01*
X909843Y1034922D01*
Y1047617D01*
X914922Y1045078D02*
X917461Y1047617D01*
X922539D01*
X925078Y1045078D01*
Y1042539D01*
X922539Y1040000D01*
X920000D01*
X922539D01*
X925078Y1037461D01*
Y1034922D01*
X922539Y1032383D01*
X917461D01*
X914922Y1034922D01*
X940313Y1032383D02*
X930157D01*
X940313Y1042539D01*
Y1045078D01*
X937774Y1047617D01*
X932696D01*
X930157Y1045078D01*
X982226Y1047617D02*
Y1034922D01*
X984765Y1032383D01*
X989843D01*
X992383Y1034922D01*
Y1047617D01*
X997461Y1045078D02*
X1000000Y1047617D01*
X1005078D01*
X1007618Y1045078D01*
Y1042539D01*
X1005078Y1040000D01*
X1002539D01*
X1005078D01*
X1007618Y1037461D01*
Y1034922D01*
X1005078Y1032383D01*
X1000000D01*
X997461Y1034922D01*
X1012696Y1032383D02*
X1017774D01*
X1015235D01*
Y1047617D01*
X1012696Y1045078D01*
X1059687Y1047617D02*
Y1034922D01*
X1062226Y1032383D01*
X1067304D01*
X1069843Y1034922D01*
Y1047617D01*
X1074922Y1045078D02*
X1077461Y1047617D01*
X1082539D01*
X1085078Y1045078D01*
Y1042539D01*
X1082539Y1040000D01*
X1080000D01*
X1082539D01*
X1085078Y1037461D01*
Y1034922D01*
X1082539Y1032383D01*
X1077461D01*
X1074922Y1034922D01*
X1090157Y1045078D02*
X1092696Y1047617D01*
X1097774D01*
X1100313Y1045078D01*
Y1034922D01*
X1097774Y1032383D01*
X1092696D01*
X1090157Y1034922D01*
Y1045078D01*
X979687Y967617D02*
Y954922D01*
X982226Y952382D01*
X987304D01*
X989843Y954922D01*
Y967617D01*
X1005078Y952382D02*
X994922D01*
X1005078Y962539D01*
Y965078D01*
X1002539Y967617D01*
X997461D01*
X994922Y965078D01*
X1020313Y952382D02*
X1010157D01*
X1020313Y962539D01*
Y965078D01*
X1017774Y967617D01*
X1012696D01*
X1010157Y965078D01*
X1114922Y984843D02*
X1112382Y982304D01*
Y977226D01*
X1114922Y974687D01*
X1125078D01*
X1127617Y977226D01*
Y982304D01*
X1125078Y984843D01*
X1127617Y1000078D02*
Y989922D01*
X1117461Y1000078D01*
X1114922D01*
X1112382Y997539D01*
Y992461D01*
X1114922Y989922D01*
Y1005157D02*
X1112382Y1007696D01*
Y1012774D01*
X1114922Y1015313D01*
X1117461D01*
X1120000Y1012774D01*
Y1010235D01*
Y1012774D01*
X1122539Y1015313D01*
X1125078D01*
X1127617Y1012774D01*
Y1007696D01*
X1125078Y1005157D01*
M02*
